<?xml version="1.0" encoding="UTF-8"?>
<svg width="55px" height="54px" viewBox="0 0 55 54" version="1.1" xmlns="http://www.w3.org/2000/svg" xmlns:xlink="http://www.w3.org/1999/xlink">
    <title>Background 3</title>
    <defs>
        <path d="M12,0 L40,0 C46.627417,-1.21743675e-15 52,5.372583 52,12 L52,40 C52,46.627417 46.627417,52 40,52 L12,52 C5.372583,52 8.11624501e-16,46.627417 0,40 L0,12 C-8.11624501e-16,5.372583 5.372583,1.21743675e-15 12,0 Z" id="path-1"></path>
        <path d="M12,0 L40,0 C46.627417,-1.21743675e-15 52,5.372583 52,12 L52,40 C52,46.627417 46.627417,52 40,52 L12,52 C5.372583,52 8.11624501e-16,46.627417 0,40 L0,12 C-8.11624501e-16,5.372583 5.372583,1.21743675e-15 12,0 Z" id="path-3"></path>
    </defs>
    <g id="Page-1" stroke="none" stroke-width="1" fill="none" fill-rule="evenodd">
        <g id="Background" transform="translate(1.590361, 1.000000)">
            <g id="mask-2">
                <mask fill="white">
                    <use xlink:href="#path-1"></use>
                </mask>
                <use id="mask-copy" fill="#FFFFFF" xlink:href="#path-1"></use>
                <mask id="mask-4" fill="white">
                    <use xlink:href="#path-3"></use>
                </mask>
                <use id="mask" stroke="#949494" stroke-width="1.2" opacity="0.3" stroke-linecap="round" stroke-linejoin="round" xlink:href="#path-3"></use>
            </g>
            <g id="FNB/reserved/payments" transform="translate(15.000000, 13.000000)" stroke="#009999" stroke-linecap="round" stroke-linejoin="round" stroke-width="1.5">
                <g id="icon">
                    <path d="M13.8888,3.57 L8.9108,3.57 L7.4888,0.014 C8.2008,0.014 8.9108,0.014 9.6228,0.726 C9.9408,0.32 10.3328,0.014 11.4008,1.77635684e-15 C12.4668,0.014 12.8288,0.234 13.1768,0.726 C13.8888,0.014 14.6008,0.014 15.3108,0.014 L13.8888,3.57 Z" id="Stroke-1"></path>
                    <path d="M13.8888,3.5702 L11.4008,3.5702 L8.9108,3.5702 C7.4888,4.9922 5.7468,5.6762 5.3548,8.5742 C4.8988,11.9622 8.0328,14.7722 11.4008,14.9562 C14.7668,14.7722 17.7708,11.9762 17.4448,8.5742 C17.1668,5.6762 15.3108,4.9922 13.8888,3.5702 Z" id="Stroke-3"></path>
                    <path d="M0,22.366 C0,22.366 3.33,19.072 3.714,18.722 C4.096,18.374 4.48,17.78 6.608,17.746 C8.736,17.71 12.294,17.71 12.538,17.746 C12.78,17.78 14.236,18.264 13.818,20.044" id="Stroke-5"></path>
                    <path d="M5.55459213,26.1 C5.55459213,26.1 6.5696,24.9474 6.9196,24.6334 C7.2696,24.3194 7.7736,23.7354 11.0016,23.7974 C12.6756,23.8274 14.1216,23.6934 14.5256,23.6934 C14.9256,23.6934 16.1156,23.0954 16.7896,22.5434 C18.3676,21.2514 21.7596,18.2674 21.7596,18.2674 C21.7596,18.2674 22.2996,17.5894 21.7596,16.9774 C21.2196,16.3674 20.4516,16.7174 19.8936,17.0494 C19.3356,17.3794 18.9236,17.5854 18.2796,17.9434 C15.3296,19.5814 14.3476,20.1514 13.1456,20.1694 C11.9416,20.1874 9.9416,20.1354 9.9416,20.1354" id="Stroke-7"></path>
                </g>
            </g>
        </g>
    </g>
</svg>