<?xml version="1.0" encoding="UTF-8"?>
<svg width="55px" height="54px" viewBox="0 0 55 54" version="1.1" xmlns="http://www.w3.org/2000/svg" xmlns:xlink="http://www.w3.org/1999/xlink">
    <title>Background 2</title>
    <defs>
        <path d="M12,0 L40,0 C46.627417,-1.21743675e-15 52,5.372583 52,12 L52,40 C52,46.627417 46.627417,52 40,52 L12,52 C5.372583,52 8.11624501e-16,46.627417 0,40 L0,12 C-8.11624501e-16,5.372583 5.372583,1.21743675e-15 12,0 Z" id="path-1"></path>
        <path d="M12,0 L40,0 C46.627417,-1.21743675e-15 52,5.372583 52,12 L52,40 C52,46.627417 46.627417,52 40,52 L12,52 C5.372583,52 8.11624501e-16,46.627417 0,40 L0,12 C-8.11624501e-16,5.372583 5.372583,1.21743675e-15 12,0 Z" id="path-3"></path>
    </defs>
    <g id="Page-1" stroke="none" stroke-width="1" fill="none" fill-rule="evenodd">
        <g id="Background" transform="translate(1.590361, 1.000000)">
            <g id="mask-2">
                <mask fill="white">
                    <use xlink:href="#path-1"></use>
                </mask>
                <use id="mask-copy" fill="#FFFFFF" xlink:href="#path-1"></use>
                <mask id="mask-4" fill="white">
                    <use xlink:href="#path-3"></use>
                </mask>
                <use id="mask" stroke="#949494" stroke-width="1.2" opacity="0.3" stroke-linecap="round" stroke-linejoin="round" xlink:href="#path-3"></use>
            </g>
            <g id="FNB/reserved/payments" transform="translate(13.000000, 13.000000)" stroke="#009999" stroke-linecap="round" stroke-linejoin="round" stroke-width="1.5">
                <g id="Group">
                    <path d="M22.5854922,3.41450777 C21.8048359,2.63385147 21.8048359,1.36614853 22.5854922,0.585492228 C23.3661485,-0.195164076 24.6338515,-0.195164076 25.4145078,0.585492228 C26.1951641,1.36614853 26.1951641,2.63385147 25.4145078,3.41450777 C24.6338515,4.19516408 23.3661485,4.19516408 22.5854922,3.41450777 Z" id="Stroke-5"></path>
                    <path d="M24,14.0075748 C24,20.6188613 18.6218912,25.9969701 11.9924252,25.9969701 C5.37810882,25.9969701 0,20.6188613 0,14.0075748 C0,7.37810882 5.37810882,2 11.9924252,2 C18.6218912,2 24,7.37810882 24,14.0075748 Z" id="Stroke-7"></path>
                    <path d="M5.46821417,14.4259695 L10.2354634,14.4259695 C10.2557866,13.5840071 10.6448313,11.0261834 7.85183877,11.0261834 C6.40888941,11.0261834 5.4740208,11.8971789 5.4740208,13.1165728 C5.4740208,13.7959493 5.4885374,13.8801456 5.46821417,14.4259695 Z" id="Stroke-9"></path>
                    <path d="M10.2549161,16.8090141 C9.77006188,17.6596865 9.20391468,18.1590574 7.72902865,18.1590574 C6.1612364,18.1590574 5.46734317,17.1167659 5.46734317,15.9583416 L5.46734317,14.4253892" id="Stroke-11"></path>
                    <path d="M13.2296568,13.0756362 L15.4419858,13.0756362 C16.7688026,13.0756362 18.766286,13.4385511 18.766286,15.8918556 C18.766286,17.3551284 17.755931,18.1535411 15.6307015,18.1535411 L13.2296568,18.1535411 L13.2296568,8.43322919 L15.6045717,8.43322919 C17.9272268,8.43322919 18.5049873,9.35067798 18.5049873,10.6049118 C18.5049873,12.6256218 17.1230075,13.0756362 14.7916424,13.0756362" id="Stroke-13"></path>
                </g>
            </g>
        </g>
    </g>
</svg>