<?xml version="1.0" encoding="UTF-8"?>
<svg width="52px" height="52px" viewBox="0 0 52 52" version="1.1" xmlns="http://www.w3.org/2000/svg" xmlns:xlink="http://www.w3.org/1999/xlink">
    <title>Invest.v1</title>
    <g id="Invest.v1" stroke="none" stroke-width="1" fill="none" fill-rule="evenodd">
        <g id="mask-2">
            <g id="mask-copy" fill="#FFFFFF" fill-rule="nonzero">
                <path d="M12,0 L40,0 C46.627417,0 52,5.372583 52,12 L52,40 C52,46.627417 46.627417,52 40,52 L12,52 C5.372583,52 0,46.627417 0,40 L0,12 C0,5.372583 5.372583,0 12,0 Z" id="path-1"></path>
            </g>
            <g id="mask" opacity="0.3" stroke-linecap="round" stroke-linejoin="round" stroke="#949494" stroke-width="1.2">
                <path d="M40,0.6 C43.1480231,0.6 45.9980231,1.87598846 48.0610173,3.93898269 C50.1240115,6.00197692 51.4,8.85197692 51.4,12 L51.4,40 C51.4,43.1480231 50.1240115,45.9980231 48.0610173,48.0610173 C45.9980231,50.1240115 43.1480231,51.4 40,51.4 L12,51.4 C8.85197693,51.4 6.00197692,50.1240115 3.93898269,48.0610173 C1.87598846,45.9980231 0.6,43.1480231 0.6,40 L0.6,12 C0.6,8.85197693 1.87598846,6.00197692 3.93898269,3.93898269 C6.00197692,1.87598846 8.85197692,0.6 12,0.6 L40,0.6 Z" id="path-3"></path>
            </g>
        </g>
        <g id="icon" transform="translate(13.000000, 15.006354)" stroke="#009999" stroke-linecap="round" stroke-linejoin="round" stroke-width="1.5">
            <g id="Group" transform="translate(0.000000, -0.000000)">
                <path d="M24,0 L22,0 C20.896,0 20,0.896 20,2 L20,19.9936457 C20,21.0976457 20.896,21.9936457 22,21.9936457 L24,21.9936457 C25.104,21.9936457 26,21.0976457 26,19.9936457 L26,2 C26,0.896 25.104,0 24,0 Z" id="Stroke-1"></path>
                <path d="M14,5.99364567 L12,5.99364567 C10.896,5.99364567 10,6.87811391 10,7.96790514 L10,20.0193862 C10,21.1091774 10.896,21.9936457 12,21.9936457 L14,21.9936457 C15.104,21.9936457 16,21.1091774 16,20.0193862 L16,7.96790514 C16,6.87811391 15.104,5.99364567 14,5.99364567 Z" id="Stroke-3"></path>
                <path d="M4,11.9936457 L2,11.9936457 C0.896,11.9936457 0,12.8766624 0,13.9646651 L0,20.0226262 C0,21.110629 0.896,21.9936457 2,21.9936457 L4,21.9936457 C5.104,21.9936457 6,21.110629 6,20.0226262 L6,13.9646651 C6,12.8766624 5.104,11.9936457 4,11.9936457 Z" id="Stroke-3-Copy"></path>
            </g>
        </g>
    </g>
</svg>